<?xml version="1.0" encoding="UTF-8" standalone="no"?>
<svg
   xmlns:dc="http://purl.org/dc/elements/1.1/"
   xmlns:cc="http://creativecommons.org/ns#"
   xmlns:rdf="http://www.w3.org/1999/02/22-rdf-syntax-ns#"
   xmlns:svg="http://www.w3.org/2000/svg"
   xmlns="http://www.w3.org/2000/svg"
   xmlns:sodipodi="http://sodipodi.sourceforge.net/DTD/sodipodi-0.dtd"
   xmlns:inkscape="http://www.inkscape.org/namespaces/inkscape"
   version="1.1"
   id="Capa_1"
   x="0px"
   y="0px"
   width="1200"
   height="400"
   viewBox="0 0 1200 400"
   xml:space="preserve"
   sodipodi:docname="logo.svg"
   inkscape:version="1.0.1 (3bc2e813f5, 2020-09-07)"><metadata
   id="metadata43"><rdf:RDF><cc:Work
       rdf:about=""><dc:format>image/svg+xml</dc:format><dc:type
         rdf:resource="http://purl.org/dc/dcmitype/StillImage" /><dc:title /></cc:Work></rdf:RDF></metadata><defs
   id="defs41" /><sodipodi:namedview
   pagecolor="#ffffff"
   bordercolor="#666666"
   borderopacity="1"
   objecttolerance="10"
   gridtolerance="10"
   guidetolerance="10"
   inkscape:pageopacity="0"
   inkscape:pageshadow="2"
   inkscape:window-width="1920"
   inkscape:window-height="1017"
   id="namedview39"
   showgrid="false"
   inkscape:zoom="0.53125"
   inkscape:cx="618.13909"
   inkscape:cy="28.67356"
   inkscape:window-x="-8"
   inkscape:window-y="-8"
   inkscape:window-maximized="1"
   inkscape:current-layer="g854"
   inkscape:document-rotation="0" />

<g
   id="g8"
   style="fill:#ffffff">
</g>
<g
   id="g10"
   style="fill:#ffffff">
</g>
<g
   id="g12"
   style="fill:#ffffff">
</g>
<g
   id="g14"
   style="fill:#ffffff">
</g>
<g
   id="g16"
   style="fill:#ffffff">
</g>
<g
   id="g18"
   style="fill:#ffffff">
</g>
<g
   id="g20"
   style="fill:#ffffff">
</g>
<g
   id="g22"
   style="fill:#ffffff">
</g>
<g
   id="g24"
   style="fill:#ffffff">
</g>
<g
   id="g26"
   style="fill:#ffffff">
</g>
<g
   id="g28"
   style="fill:#ffffff">
</g>
<g
   id="g30"
   style="fill:#ffffff">
</g>
<g
   id="g32"
   style="fill:#ffffff">
</g>
<g
   id="g34"
   style="fill:#ffffff">
</g>
<g
   id="g36"
   style="fill:#ffffff">
</g>
<g
   inkscape:groupmode="layer"
   id="layer1"
   inkscape:label="фы"><g
     id="g854"><g
       id="g6"
       style="fill:#ffffff;fill-opacity:1"
       transform="matrix(0.83886261,0,0,0.83886261,31.3776,14.258729)">
	<g
   id="g4"
   style="fill:#ffffff;fill-opacity:1">
		<path
   id="path2"
   style="fill:#ffffff;fill-opacity:1"
   d="m 364.992,196.363 c -0.784,-0.625 -1.599,-1.251 -2.449,-1.886 C 359.716,154.219 342.182,116.765 312.861,88.573 282.334,59.221 242.253,43.057 200,43.057 c -42.253,0 -82.334,16.165 -112.861,45.516 -29.321,28.192 -46.855,65.646 -49.682,105.905 -0.852,0.636 -1.666,1.263 -2.449,1.886 C 12.432,214.342 0,238.412 0,264.141 c 0,25.729 12.432,49.798 35.007,67.775 19.897,15.846 45.273,24.969 69.663,25.026 4.768,0 9.252,-1.854 12.626,-5.223 3.388,-3.377 5.252,-7.873 5.252,-12.657 V 189.217 c 0,-4.783 -1.864,-9.278 -5.253,-12.66 -3.375,-3.365 -7.866,-5.219 -12.669,-5.219 -1.875,0.004 -3.769,0.064 -5.676,0.179 14.572,-42.573 55.133,-72.269 101.05,-72.269 45.917,0 86.479,29.696 101.05,72.27 -1.919,-0.116 -3.827,-0.176 -5.719,-0.18 -4.77,0 -9.251,1.854 -12.628,5.222 -3.386,3.379 -5.251,7.875 -5.251,12.657 v 149.848 c 0,4.783 1.866,9.279 5.253,12.658 3.375,3.367 7.859,5.221 12.626,5.221 h 0.043 c 24.346,-0.059 49.721,-9.182 69.619,-25.024 C 387.568,313.938 400,289.867 400,264.141 c 0,-25.729 -12.432,-49.799 -35.008,-67.778 z m 70.30755,26.40929 A 233.11049,233.11049 0 0 1 202.18906,455.88278 233.11049,233.11049 0 0 1 -30.921422,222.77229 233.11049,233.11049 0 0 1 202.18906,-10.338186 233.11049,233.11049 0 0 1 435.29955,222.77229 Z" />
	</g>
</g><text
       xml:space="preserve"
       style="font-style:normal;font-variant:normal;font-weight:bold;font-stretch:normal;font-size:199.62px;line-height:1.25;font-family:Nunito;-inkscape-font-specification:'Nunito, Bold';font-variant-ligatures:normal;font-variant-caps:normal;font-variant-numeric:normal;font-variant-east-asian:normal;fill:#ffffff;fill-opacity:1;stroke:none;stroke-width:4.99053;"
       x="452.97574"
       y="263.59964"
       id="text851"><tspan
         sodipodi:role="line"
         id="tspan849"
         x="452.97574"
         y="263.59964"
         style="font-style:normal;font-variant:normal;font-weight:bold;font-stretch:normal;font-size:199.62px;font-family:Nunito;-inkscape-font-specification:'Nunito, Bold';font-variant-ligatures:normal;font-variant-caps:normal;font-variant-numeric:normal;font-variant-east-asian:normal;fill:#ffffff;stroke-width:4.99053;">UpBand</tspan></text></g></g></svg>
